<mxfile host="app.diagrams.net" modified="2023-11-15T06:32:22.751Z" agent="Mozilla/5.0 (Macintosh; Intel Mac OS X 10_15_7) AppleWebKit/537.36 (KHTML, like Gecko) Chrome/106.0.0.0 Safari/537.36" version="22.1.1" etag="Jt4mYvVK42V4Oos2eyrk" type="github">
  <diagram name="Page-1" id="iB_ukz-1EvIABWnGymJu">
    <mxGraphModel>
      <root>
        <mxCell id="0" />
        <mxCell id="1" parent="0" />
      </root>
    </mxGraphModel>
  </diagram>
</mxfile>
